Coordinates
version=1
nRows=8
nColumns=40
inDegrees=yes

Units are S.I. units (second, meters, Newtons, ...)
If the header above contains a line with 'inDegrees', this indicates whether rotational values are in degrees (yes) or radians (no).

endheader
time	pelvis_tilt	pelvis_list	pelvis_rotation	pelvis_tx	pelvis_ty	pelvis_tz	hip_flexion_r	hip_adduction_r	hip_rotation_r	knee_angle_r	knee_angle_r_beta	ankle_angle_r	subtalar_angle_r	mtp_angle_r	hip_flexion_l	hip_adduction_l	hip_rotation_l	knee_angle_l	knee_angle_l_beta	ankle_angle_l	subtalar_angle_l	mtp_angle_l	lumbar_extension	lumbar_bending	lumbar_rotation	arm_flex_r	arm_add_r	arm_rot_r	elbow_flex_r	pro_sup_r	wrist_flex_r	wrist_dev_r	arm_flex_l	arm_add_l	arm_rot_l	elbow_flex_l	pro_sup_l	wrist_flex_l	wrist_dev_l
      0.98800000	     20.32830303	      2.26751780	      4.66895596	      1.48030868	      0.98147892	     -0.35492859	     -0.71433262	     -4.94635127	     -7.24227241	     35.66044634	      0.62239220	     -4.54951588	      0.00000000	      0.00000000	    -25.62181594	      3.74931899	      4.87036469	      9.85068981	      0.17192697	     -4.97564123	      0.00000000	      0.00000000	    -33.06379728	     -0.25015625	     -8.17153960	     -1.87392106	    -17.07298453	      7.69340755	     41.89155795	     77.26792206	      0.00000000	      0.00000000	      7.13430187	    -25.53243767	     24.96415781	     52.82214773	     76.16267721	      0.00000000	      0.00000000
      0.99200000	     20.19066775	      2.36898981	      4.66313805	      1.48519004	      0.98082898	     -0.35500761	     -0.18034988	     -5.05858576	     -7.40458605	     34.76100561	      0.60669400	     -4.83933349	      0.00000000	      0.00000000	    -25.89218006	      3.84269433	      4.80678548	      9.71419991	      0.16954477	     -4.89700359	      0.00000000	      0.00000000	    -32.98595013	     -0.34334244	     -8.28436149	     -1.83204605	    -17.01932047	      7.65583967	     41.84590034	     77.30856680	      0.00000000	      0.00000000	      7.36751361	    -25.65529978	     25.08024979	     53.05403863	     76.15256709	      0.00000000	      0.00000000
      0.99600000	     20.21727074	      2.35012934	      4.80068876	      1.49007889	      0.98046127	     -0.35516380	      0.02095042	     -4.98354734	     -7.70254839	     33.54984315	      0.58555523	     -5.39826336	      0.00000000	      0.00000000	    -26.44240102	      3.73610295	      4.97513347	      9.32888323	      0.16281973	     -5.11780689	      0.00000000	      0.00000000	    -33.09500794	     -0.24554330	     -8.38254965	     -1.86948164	    -16.93199549	      7.23257445	     41.81074759	     77.14813605	      0.00000000	      0.00000000	      7.71640231	    -25.75485498	     25.30843574	     53.21290596	     76.11197622	      0.00000000	      0.00000000
      1.00000000	     20.05033145	      2.48518452	      4.72355932	      1.49526575	      0.97962208	     -0.35542563	      0.58597950	     -5.19332961	     -7.96515972	     32.72748731	      0.57120241	     -5.53665362	      0.00000000	      0.00000000	    -26.72326305	      3.91396177	      4.74877224	      9.16001922	      0.15987249	     -4.91349417	      0.00000000	      0.00000000	    -32.95416390	     -0.38283155	     -8.45654298	     -1.92557018	    -16.94915077	      7.20771298	     41.88969219	     77.11024610	      0.00000000	      0.00000000	      7.88632364	    -25.81661847	     25.40727958	     53.45171631	     76.11281874	      0.00000000	      0.00000000
      1.00400000	     20.07939160	      2.48748077	      4.86013918	      1.50024993	      0.97917024	     -0.35563730	      0.75913823	     -5.14203840	     -8.32540039	     31.48701022	      0.54955200	     -6.32211737	      0.00000000	      0.00000000	    -27.24781850	      3.83901951	      4.88936895	      8.85808958	      0.15460283	     -4.95101431	      0.00000000	      0.00000000	    -33.05379765	     -0.30334819	     -8.57317878	     -1.93727007	    -16.87231425	      6.97858623	     41.89422975	     76.91869964	      0.00000000	      0.00000000	      8.21128879	    -25.91194928	     25.53663641	     53.66727246	     75.73998072	      0.00000000	      0.00000000
      1.00800000	     19.99522723	      2.54822073	      4.85857127	      1.50518046	      0.97838814	     -0.35567695	      1.15749345	     -5.17435094	     -8.59951852	     30.44883031	      0.53143234	     -6.93074568	      0.00000000	      0.00000000	    -27.64056768	      3.88632762	      4.83306655	      8.59113796	      0.14994364	     -4.87796463	      0.00000000	      0.00000000	    -33.03645267	     -0.34732025	     -8.61182082	     -2.00993546	    -16.81936788	      6.80916425	     41.99400788	     76.77681818	      0.00000000	      0.00000000	      8.51452732	    -26.01708224	     25.83698758	     53.85941161	     75.67880336	      0.00000000	      0.00000000
      1.01200000	     19.82106550	      2.69601474	      4.75050418	      1.51036653	      0.97742189	     -0.35591005	      1.72270987	     -5.39138306	     -8.88245522	     29.63355650	      0.51720313	     -7.06420928	      0.00000000	      0.00000000	    -27.87230256	      4.09433826	      4.63384656	      8.49874270	      0.14833104	     -4.73566857	      0.00000000	      0.00000000	    -32.89805012	     -0.52301629	     -8.65641131	     -2.04050727	    -16.84379167	      6.78240428	     42.01983953	     76.76213945	      0.00000000	      0.00000000	      8.70241814	    -26.05555501	     25.90614028	     54.04727379	     75.67175407	      0.00000000	      0.00000000
      1.01600000	     19.75916454	      2.74830832	      4.85487745	      1.51516873	      0.97675346	     -0.35595688	      2.03038667	     -5.40774646	     -9.35411595	     28.43750114	      0.49632803	     -7.94882148	      0.00000000	      0.00000000	    -28.18335854	      4.07696771	      4.58862211	      8.40722652	      0.14673378	     -4.68403380	      0.00000000	      0.00000000	    -32.92437911	     -0.52041005	     -8.78166430	     -1.99694376	    -16.74864349	      6.64653846	     41.93555804	     76.69304406	      0.00000000	      0.00000000	      9.05261262	    -26.17463562	     26.16351622	     54.17961804	     75.66259476	      0.00000000	      0.00000000
